<svg width="104" height="83" viewBox="0 0 104 83" fill="none" xmlns="http://www.w3.org/2000/svg">
<ellipse cx="52" cy="41.5" rx="52" ry="41.5" fill="black"/>
<path d="M34.0366 68C29.9852 68 26.544 67.1483 23.7129 65.4449C20.9306 63.7415 18.7829 61.4298 17.2697 58.5096C15.8054 55.5409 15.0488 52.1584 15 48.3623L26.2023 47.8512C26.2511 51.55 26.9589 54.2755 28.3256 56.0276C29.6924 57.7796 31.596 58.6557 34.0366 58.6557C36.526 58.6557 38.4541 57.8039 39.8208 56.1006C41.1875 54.3972 41.8709 51.7691 41.8709 48.2163V15H53V48.2163C53 52.2557 52.1946 55.7599 50.5838 58.7287C49.0218 61.6974 46.8253 63.9848 43.9942 65.5909C41.1631 67.197 37.8439 68 34.0366 68Z" fill="white"/>
<path d="M48 67V15H68.9048C75.1861 15 80.0934 16.5136 83.6266 19.5408C87.2089 22.5681 89 26.7183 89 31.9915C89 35.4582 88.1903 38.4854 86.5709 41.0732C85.0006 43.6122 82.6942 45.5897 79.6517 47.0056C76.6583 48.3728 73.076 49.0563 68.9048 49.0563H59.1885V67H48ZM59.1885 39.6817H68.2424C71.1867 39.6817 73.4686 39.0469 75.088 37.7775C76.7074 36.4592 77.5171 34.5305 77.5171 31.9915C77.5171 29.5014 76.7074 27.6216 75.088 26.3521C73.5177 25.0338 71.2358 24.3746 68.2424 24.3746H59.1885V39.6817Z" fill="white"/>
</svg>
