<svg width="50" height="50" viewBox="0 0 50 50" fill="none" xmlns="http://www.w3.org/2000/svg">
<circle cx="25" cy="25" r="25" fill="#0A0A0A"/>
<path d="M29.5815 28.0583H28.3545V33.3037L29.9496 35.0215V35.2055H20.5L20.7778 35.0215L22.3729 33.3037L22.4036 16.2791L20.7471 14.684V14.5H28.6919C35.0416 14.5 38.8453 15.6656 38.8453 20.819C38.8453 25.2975 35.5017 28.0583 29.5815 28.0583ZM29.0293 15.0521H28.3545V27.5061H29.1827C31.5447 27.5061 32.8637 26.4632 32.8637 21.1564C32.8637 16.2485 31.6367 15.0521 29.0293 15.0521Z" fill="white"/>
<path d="M26.865 16.4018V28.7025C26.865 30.5123 21.865 35.635 18.8282 35.635C16.4356 35.635 14.5031 34.6534 13 31.8926L17.908 24.5307L18.092 24.6227C17.7239 27.2607 17.6933 34.8681 19.8405 34.8681C20.8221 34.8681 20.8528 33.4877 20.8528 28.7638V16.4018L19.2883 14.684V14.5H28.4294V14.684L26.865 16.4018Z" fill="white"/>
</svg>
