<svg width="100" height="100" viewBox="0 0 100 100" fill="none" xmlns="http://www.w3.org/2000/svg">
<circle cx="50" cy="50" r="50" fill="#0A0A0A"/>
<path d="M66.1633 55.9509H63.7094V66.4417L66.8995 69.8773V70.2454H48.556V69.8773L51.7462 66.4417L51.8075 32.3926L48.4946 29.2024V28.8344H64.3842C77.0836 28.8344 84.6909 31.1656 84.6909 41.4724C84.6909 50.4294 78.0038 55.9509 66.1633 55.9509ZM65.059 29.9386H63.7094V54.8466H65.3658C70.0897 54.8466 72.7278 52.7607 72.7278 42.1472C72.7278 32.3313 70.2738 29.9386 65.059 29.9386Z" fill="white"/>
<path d="M42.4542 32.638V57.2393C42.4542 60.8589 32.4542 71.1043 26.3806 71.1043C21.5953 71.1043 17.7303 69.1411 14.7241 63.6196L24.5401 48.8957L24.9082 49.0798C24.172 54.3558 24.1106 69.5705 28.4051 69.5705C30.3683 69.5705 30.4296 66.8098 30.4296 57.362V32.638L27.3008 29.2024V28.8344H45.583V29.2024L42.4542 32.638Z" fill="white"/>
</svg>
